HIERARCHY
ROOT Hips
{
	OFFSET 0.000000 0.000000 0.000000
	CHANNELS 6 Xposition Yposition Zposition Zrotation Yrotation Xrotation 
	JOINT LowerBack
	{
		OFFSET 0.000000 0.000000 0.000000
		CHANNELS 3 Zrotation Yrotation Xrotation
		JOINT Spine
		{
			OFFSET 0.028270 2.035590 -0.193380
			CHANNELS 3 Zrotation Yrotation Xrotation
			JOINT Spine1
			{
				OFFSET 0.056720 2.048850 -0.042750
				CHANNELS 3 Zrotation Yrotation Xrotation
				JOINT Neck
				{
					OFFSET 0.000000 0.000000 0.000000
					CHANNELS 3 Zrotation Yrotation Xrotation
					JOINT Neck1
					{
						OFFSET -0.054170 1.746240 0.172020
						CHANNELS 3 Zrotation Yrotation Xrotation
						JOINT Head
						{
							OFFSET 0.104070 1.761360 -0.123970
							CHANNELS 3 Zrotation Yrotation Xrotation
							End Site
							{
								OFFSET 0.000000 0.000000 0.000000
							}
						}
					}
				}
				JOINT LeftShoulder
				{
					OFFSET 0.000000 0.000000 0.000000
					CHANNELS 3 Zrotation Yrotation Xrotation
					JOINT LeftArm
					{
						OFFSET 3.362410 1.200890 -0.311210
						CHANNELS 3 Zrotation Yrotation Xrotation
						JOINT LeftForeArm
						{
							OFFSET 4.983000 -0.000000 -0.000000
							CHANNELS 3 Zrotation Yrotation Xrotation
							JOINT LeftHand
							{
								OFFSET 3.483560 -0.000000 -0.000000
								CHANNELS 3 Zrotation Yrotation Xrotation
								JOINT LeftFingerBase
								{
									OFFSET 0.000000 0.000000 0.000000
									CHANNELS 3 Zrotation Yrotation Xrotation
									JOINT LeftHandIndex1
									{
										OFFSET 0.715260 -0.000000 -0.000000
										CHANNELS 3 Zrotation Yrotation Xrotation
										End Site
										{
											OFFSET 0.000000 0.000000 0.000000
										}
									}
								}
								JOINT LThumb
								{
									OFFSET 0.000000 0.000000 0.000000
									CHANNELS 3 Zrotation Yrotation Xrotation
									End Site
									{
										OFFSET 0.000000 0.000000 0.000000
									}
								}
							}
						}
					}
				}
				JOINT RightShoulder
				{
					OFFSET 0.000000 0.000000 0.000000
					CHANNELS 3 Zrotation Yrotation Xrotation
					JOINT RightArm
					{
						OFFSET -3.136600 1.374050 -0.404650
						CHANNELS 3 Zrotation Yrotation Xrotation
						JOINT RightForeArm
						{
							OFFSET -5.241900 -0.000000 -0.000000
							CHANNELS 3 Zrotation Yrotation Xrotation
							JOINT RightHand
							{
								OFFSET -3.444170 -0.000000 -0.000000
								CHANNELS 3 Zrotation Yrotation Xrotation
								JOINT RightFingerBase
								{
									OFFSET 0.000000 0.000000 0.000000
									CHANNELS 3 Zrotation Yrotation Xrotation
									JOINT RightHandIndex1
									{
										OFFSET -0.622530 -0.000000 -0.000000
										CHANNELS 3 Zrotation Yrotation Xrotation
										End Site
										{
											OFFSET 0.000000 0.000000 0.000000
										}
									}
								}
								JOINT RThumb
								{
									OFFSET 0.000000 0.000000 0.000000
									CHANNELS 3 Zrotation Yrotation Xrotation
									End Site
									{
										OFFSET 0.000000 0.000000 0.000000
									}
								}
							}
						}
					}
				}
			}
		}
	}
}
}
MOTION
Frames: 14
Frame Time: 0.008333
-4.172821 17.331326 0.500350 -4.077789 -76.576749 17.227441 -9.252161 -1.160772 5.612059 -3.061066 -0.741744 -2.038328 -8.233233 -0.808238 -0.614004 10.757180 -0.345968 0.144746 -4.157109 -0.365414 1.793121 0.000000 0.000000 0.000000 -2.963223 -6.925347 2.553555 -56.485078 -16.202041 10.181469 -4.142062 -16.752053 0.003109 2.926179 -2.834998 -0.076730 -0.116314 0.078060 -0.000000 0.000000 0.000000 0.000000 0.000000 0.000000 0.000000 18.048957 -0.749044 0.678856 72.997175 5.167740 -0.426924 2.289597 22.692811 0.005756 -2.575281 11.559010 -0.267587 0.048431 -0.108118 0.000000 0.000000 0.000000 0.000000 0.000000 0.000000 0.000000 
-4.159048 17.330357 0.529532 -5.107496 -76.262400 17.903372 -9.157170 -1.194092 5.786353 -3.048443 -0.779285 -2.002990 -8.272930 -0.842351 -0.632145 10.803300 -0.342885 0.205892 -4.157059 -0.365461 1.807269 0.000000 0.000000 0.000000 -2.991264 -7.132635 2.569865 -56.369482 -16.916468 10.347356 -4.135557 -16.870003 0.002924 2.893387 -2.804215 -0.075218 -0.116899 0.082441 -0.000000 0.000000 0.000000 0.000000 0.000000 0.000000 0.000000 18.085047 -0.781550 0.688115 73.032133 4.760753 -0.675866 2.300423 22.462793 0.005870 -2.484667 11.537524 -0.257793 0.047854 -0.105893 0.000000 0.000000 0.000000 0.000000 0.000000 0.000000 0.000000 
-4.143367 17.329471 0.558383 -6.174975 -75.950489 18.611283 -9.034616 -1.232012 5.976993 -3.030288 -0.822380 -1.964832 -8.314545 -0.881918 -0.653189 10.845120 -0.332575 0.273944 -4.158849 -0.365645 1.823108 0.000000 0.000000 0.000000 -3.031815 -7.354971 2.588604 -56.232313 -17.597357 10.543915 -4.125806 -17.048786 0.002772 2.876954 -2.797151 -0.074704 -0.117428 0.086703 0.000000 0.000000 0.000000 0.000000 0.000000 0.000000 0.000000 18.124044 -0.810862 0.698590 73.068762 4.365853 -0.935732 2.312251 22.229251 0.005984 -2.386671 11.512778 -0.247100 0.047259 -0.103728 0.000000 0.000000 0.000000 0.000000 0.000000 0.000000 0.000000 
-4.125858 17.328805 0.586941 -7.281499 -75.640362 19.353327 -8.881740 -1.275084 6.184187 -3.005978 -0.871548 -1.922431 -8.358204 -0.927133 -0.671500 10.881589 -0.317408 0.343167 -4.162189 -0.365870 1.839009 0.000000 0.000000 0.000000 -3.091847 -7.558450 2.609533 -56.070763 -18.289642 10.794335 -4.114563 -17.258652 0.002653 2.884929 -2.820112 -0.075590 -0.118051 0.090946 0.000000 0.000000 0.000000 0.000000 0.000000 0.000000 0.000000 18.164720 -0.839089 0.707305 73.107309 3.991822 -1.208562 2.324978 21.989620 0.006093 -2.286651 11.485383 -0.236307 0.046688 -0.101611 0.000000 0.000000 0.000000 0.000000 0.000000 0.000000 0.000000 
-4.106660 17.328466 0.615200 -8.424060 -75.330002 20.126804 -8.699445 -1.322171 6.405971 -2.975728 -0.925662 -1.878645 -8.402450 -0.977513 -0.696471 10.912215 -0.294245 0.423597 -4.167137 -0.366276 1.857944 0.000000 0.000000 0.000000 -3.156010 -7.801374 2.631868 -55.898716 -18.912159 11.016514 -4.098189 -17.533176 0.002543 2.914821 -2.870040 -0.077776 -0.118458 0.095123 0.000000 0.000000 0.000000 0.000000 0.000000 0.000000 0.000000 18.204122 -0.864723 0.719320 73.148377 3.630100 -1.502083 2.338510 21.741254 0.006197 -2.189178 11.454089 -0.225714 0.046169 -0.099594 0.000000 0.000000 0.000000 0.000000 0.000000 0.000000 0.000000 
-4.085824 17.328617 0.643451 -9.629809 -75.022005 20.960149 -8.477775 -1.373702 6.642616 -2.937564 -0.985236 -1.829730 -8.449004 -1.032672 -0.712834 10.935902 -0.263749 0.499506 -4.172992 -0.366599 1.875381 0.000000 0.000000 0.000000 -3.250724 -7.984072 2.656839 -55.699969 -19.597556 11.307344 -4.082548 -17.803443 0.002439 2.975832 -2.945034 -0.081562 -0.119147 0.099438 0.000000 0.000000 0.000000 0.000000 0.000000 0.000000 0.000000 18.241409 -0.885185 0.726461 73.190060 3.296022 -1.818513 2.353211 21.483306 0.006302 -2.095820 11.421842 -0.215621 0.045736 -0.097631 0.000000 0.000000 0.000000 0.000000 0.000000 0.000000 0.000000 
-4.063460 17.329352 0.671555 -10.882729 -74.714890 21.839008 -8.222954 -1.428196 6.888698 -2.892826 -1.048634 -1.780136 -8.495902 -1.091919 -0.733715 10.953721 -0.225130 0.584206 -4.180131 -0.367057 1.895293 0.000000 0.000000 0.000000 -3.349806 -8.191747 2.682702 -55.496213 -20.229165 11.555189 -4.062733 -18.117301 0.002322 3.056618 -3.041191 -0.086448 -0.119660 0.103792 0.000000 0.000000 0.000000 0.000000 0.000000 0.000000 0.000000 18.276059 -0.902127 0.735959 73.231583 2.979308 -2.155976 2.368949 21.212661 0.006402 -2.011046 11.385789 -0.206328 0.045417 -0.095776 0.000000 0.000000 0.000000 0.000000 0.000000 0.000000 0.000000 
-4.039763 17.330752 0.699643 -12.195001 -74.409607 22.779675 -7.931752 -1.485014 7.140966 -2.840992 -1.115199 -1.729657 -8.543635 -1.154470 -0.755162 10.966294 -0.178183 0.673396 -4.188383 -0.367583 1.916494 0.000000 0.000000 0.000000 -3.458574 -8.398609 2.709636 -55.285889 -20.840014 11.777104 -4.040442 -18.453846 0.002182 3.154962 -3.152240 -0.092435 -0.120115 0.108256 0.000000 0.000000 0.000000 0.000000 0.000000 0.000000 0.000000 18.308899 -0.914146 0.745928 73.270475 2.683896 -2.511154 2.386039 20.928813 0.006505 -1.934344 11.345944 -0.197834 0.045227 -0.094014 0.000000 0.000000 0.000000 0.000000 0.000000 0.000000 0.000000 
-4.014928 17.332907 0.727598 -13.550737 -74.108887 23.770425 -7.611110 -1.543472 7.394546 -2.783568 -1.183911 -1.679200 -8.592108 -1.219392 -0.776852 10.976135 -0.124185 0.766197 -4.197842 -0.368184 1.938755 0.000000 0.000000 0.000000 -3.572116 -8.603689 2.737011 -55.072993 -21.429299 11.964969 -4.016256 -18.806436 0.002022 3.263174 -3.274180 -0.099322 -0.120501 0.112832 0.000000 0.000000 0.000000 0.000000 0.000000 0.000000 0.000000 18.343431 -0.922059 0.756318 73.304044 2.410708 -2.875072 2.404402 20.632477 0.006610 -1.864322 11.300026 -0.190041 0.045156 -0.092325 0.000000 0.000000 0.000000 0.000000 0.000000 0.000000 0.000000 
-3.988981 17.335808 0.755791 -14.993502 -73.809600 24.856121 -7.246762 -1.602588 7.647673 -2.717784 -1.254146 -1.628345 -8.642193 -1.285927 -0.794487 10.981937 -0.060932 0.857846 -4.208059 -0.368768 1.960836 0.000000 0.000000 0.000000 -3.702811 -8.775851 2.765899 -54.853134 -22.037564 12.150964 -3.992116 -19.155472 0.001828 3.380584 -3.398849 -0.106710 -0.120988 0.117579 0.000000 0.000000 0.000000 0.000000 0.000000 0.000000 0.000000 18.376885 -0.921427 0.765257 73.329040 2.162703 -3.247642 2.425304 20.323995 0.006730 -1.793775 11.248844 -0.182146 0.045212 -0.090701 0.000000 0.000000 0.000000 0.000000 0.000000 0.000000 0.000000 
-3.962176 17.339434 0.783726 -16.465802 -73.516750 25.984623 -6.861969 -1.661422 7.893467 -2.648403 -1.324203 -1.580084 -8.692669 -1.352909 -0.815338 10.989099 0.009049 0.954681 -4.219654 -0.369480 1.984522 0.000000 0.000000 0.000000 -3.825809 -8.964093 2.794199 -54.640741 -22.596042 12.274187 -3.965721 -19.525238 0.001614 3.491189 -3.524147 -0.114198 -0.121279 0.122398 0.000000 0.000000 0.000000 0.000000 0.000000 0.000000 0.000000 18.417006 -0.916072 0.776460 73.343687 1.933554 -3.609384 2.447873 20.006719 0.006856 -1.720453 11.187519 -0.173952 0.045341 -0.089120 0.000000 0.000000 0.000000 0.000000 0.000000 0.000000 0.000000 
-3.934583 17.343709 0.811926 -18.024429 -73.223404 27.214326 -6.435443 -1.719057 8.131427 -2.571146 -1.393750 -1.533412 -8.744525 -1.419774 -0.833394 10.994538 0.086167 1.049881 -4.231952 -0.370190 2.008041 0.000000 0.000000 0.000000 -3.959419 -9.128563 2.823297 -54.428610 -23.158003 12.384985 -3.939353 -19.892819 0.001370 3.598059 -3.643318 -0.121688 -0.121603 0.127344 0.000000 0.000000 0.000000 0.000000 0.000000 0.000000 0.000000 18.458399 -0.903007 0.787589 73.344588 1.728578 -3.958141 2.473991 19.680902 0.007008 -1.633746 11.116465 -0.164357 0.045558 -0.087567 0.000000 0.000000 0.000000 0.000000 0.000000 0.000000 0.000000 
-3.906623 17.348610 0.839483 -19.567284 -72.942216 28.450617 -6.008168 -1.774816 8.356815 -2.494354 -1.460794 -1.489950 -8.796746 -1.484738 -0.853335 11.006861 0.168000 1.146726 -4.245635 -0.371006 2.032060 0.000000 0.000000 0.000000 -4.077332 -9.299650 2.851074 -54.227288 -23.681291 12.450151 -3.912204 -20.267995 0.001127 3.688873 -3.758568 -0.128678 -0.121784 0.132309 0.000000 0.000000 0.000000 0.000000 0.000000 0.000000 0.000000 18.514235 -0.884990 0.800538 73.332698 1.540111 -4.277274 2.501649 19.355701 0.007162 -1.528477 11.029338 -0.152762 0.045737 -0.085985 0.000000 0.000000 0.000000 0.000000 0.000000 0.000000 0.000000 
-3.877986 17.353889 0.867256 -21.189247 -72.658865 29.783662 -5.543735 -1.827743 8.570493 -2.410555 -1.525482 -1.449341 -8.849956 -1.547941 -0.872025 11.018623 0.253702 1.240886 -4.259841 -0.371820 2.055716 0.000000 0.000000 0.000000 -4.200125 -9.456666 2.879020 -54.031623 -24.193329 12.500305 -3.884760 -20.644849 0.000864 3.767719 -3.862554 -0.135070 -0.121929 0.137337 0.000000 0.000000 0.000000 0.000000 0.000000 0.000000 0.000000 18.572010 -0.860898 0.814870 73.303435 1.375290 -4.560496 2.533650 19.027488 0.007346 -1.396674 10.928522 -0.138667 0.045951 -0.084390 0.000000 0.000000 0.000000 0.000000 0.000000 0.000000 0.000000 
